<svg xmlns="http://www.w3.org/2000/svg" viewBox="0 0 14935.6 1714.5" role="img" aria-label="Atlas Iris">
<g transform="translate(93.7,1557.7) scale(1,-1)"><path transform="translate(0.0,0)" d="M339.3778991699219 560.6557312011719H925.2557983398438L930.4532165527344 473.65679931640625H331.301513671875ZM438.6476745605469 37.642822265625Q438.6476745605469 20.70037841796875 426.56980895996094 10.350189208984375Q414.491943359375 0 388.1387939453125 0H77.22808837890625Q51.37493896484375 0 38.82733154296875 10.130447387695312Q26.27972412109375 20.260894775390625 26.27972412109375 37.203338623046875Q26.27972412109375 49.9324951171875 33.864044189453125 58.68397521972656Q41.4483642578125 67.43545532226562 61.088226318359375 76.28564453125L97.37493896484375 89.22512817382812Q126.87493896484375 102.301513671875 143.5996551513672 125.86054992675781Q160.32437133789062 149.41958618164062 179.06643676757812 208.75094604492188L514.3848876953125 1234.1697082519531Q527.0823059082031 1273.5040283203125 520.2574005126953 1291.4276428222656Q513.4324951171875 1309.3512573242188 478.4166259765625 1319.9117736816406Q452.59521484375 1328.1697082519531 442.10166931152344 1338.3001556396484Q431.6081237792969 1348.4306030273438 431.6081237792969 1363.2361450195312Q431.6081237792969 1380.7996215820312 444.4057312011719 1390.3998107910156Q457.2033386230469 1400 483.238037109375 1400H924.4532165527344Q950.8668823242188 1400 963.1947479248047 1390.3998107910156Q975.5226135253906 1380.7996215820312 975.5226135253906 1363.6756286621094Q975.5226135253906 1347.9911193847656 965.3395843505859 1337.7698974609375Q955.1565551757812 1327.5486755371094 931.0325622558594 1320.9117736816406Q903.214111328125 1313.9564208984375 897.964111328125 1300.7813262939453Q892.714111328125 1287.6062316894531 902.4720458984375 1257.3324279785156L1263.3262634277344 175.31039428710938Q1277.03955078125 131.97311401367188 1295.2369689941406 111.18344116210938Q1313.4343872070312 90.39376831054688 1346.7845764160156 81.74099731445312Q1372.9403076171875 72.769775390625 1381.7825622558594 63.10906982421875Q1390.6248168945312 53.4483642578125 1390.6248168945312 37.642822265625Q1390.6248168945312 20.70037841796875 1377.8574676513672 10.350189208984375Q1365.0901184082031 0 1339.1159362792969 0H921.0078125Q895.0941467285156 0 882.5162811279297 10.350189208984375Q869.9384155273438 20.70037841796875 869.9384155273438 37.642822265625Q869.9384155273438 52.129913330078125 879.0911865234375 61.26036071777344Q888.2439575195312 70.39080810546875 907.7469177246094 76.28564453125L970.1734924316406 87.24099731445312Q995.8709106445312 94.0594482421875 996.3773651123047 110.8253173828125Q996.8838195800781 127.5911865234375 984.9889831542969 164.21517944335938L614.523681640625 1295.3760070800781L644.8738708496094 1314.7649230957031L288.41851806640625 220.25390625Q276.03955078125 181.31442260742188 276.9998779296875 156.39080810546875Q277.960205078125 131.46719360351562 294.5113067626953 115.63435363769531Q311.0624084472656 99.801513671875 344.1070556640625 87.48306274414062L401.5207214355469 75.40667724609375Q420.14471435546875 69.13287353515625 429.3961944580078 60.82087707519531Q438.6476745605469 52.508880615234375 438.6476745605469 37.642822265625Z" fill="#FFFFFF"/><path transform="translate(2027.0,0)" d="M316.49786376953125 1400H1040.047607421875Q1074.0505676269531 1400 1095.2861785888672 1409.6369018554688Q1116.5217895507812 1419.2738037109375 1133.2574005126953 1428.4712219238281Q1149.9930114746094 1437.6686401367188 1168.9959716796875 1437.6686401367188Q1195.6675720214844 1437.6686401367188 1209.9731140136719 1424.5605163574219Q1224.2786560058594 1411.452392578125 1232.491943359375 1379.4335632324219L1299.4472961425781 1055.3819274902344Q1304.523681640625 1031.3025817871094 1296.491943359375 1016.1260070800781Q1288.460205078125 1000.9494323730469 1268.3203430175781 997.3125305175781Q1249.4989318847656 993.2966613769531 1234.8828735351562 1000.7902069091797Q1220.2668151855469 1008.2837524414062 1210.2955932617188 1029.484130859375Q1159.5852661132812 1149.1597595214844 1122.1105499267578 1209.8765411376953Q1084.6358337402344 1270.5933227539062 1046.2360229492188 1292.0774536132812Q1007.8362121582031 1313.5615844726562 953.2439575195312 1313.5615844726562H813.1229248046875V144.41259765625Q813.1229248046875 123.6229248046875 825.6690521240234 110.81092834472656Q838.2151794433594 97.99893188476562 861.5494995117188 91.92254638671875L925.6963500976562 79.36203002929688Q962.6258850097656 68.63287353515625 962.6258850097656 37.642822265625Q962.6258850097656 0 912.75390625 0H445.00189208984375Q419.40667724609375 0 407.26829528808594 10.350189208984375Q395.1299133300781 20.70037841796875 395.1299133300781 37.642822265625Q395.1299133300781 68.63287353515625 432.0594482421875 79.36203002929688L496.206298828125 91.92254638671875Q520.0406188964844 97.99893188476562 532.3367462158203 110.81092834472656Q544.6328735351562 123.6229248046875 544.6328735351562 144.41259765625V1313.5615844726562H404.5118408203125Q350.7985534667969 1313.5615844726562 312.23951721191406 1291.71435546875Q273.68048095703125 1269.8671264648438 236.17550659179688 1209.089828491211Q198.6705322265625 1148.3125305175781 147.460205078125 1029.484130859375Q137.98898315429688 1008.2837524414062 123.1229248046875 1000.7902069091797Q108.25686645507812 993.2966613769531 89.43545532226562 997.3125305175781Q69.73507690429688 1000.9494323730469 61.76385498046875 1016.1260070800781Q53.792633056640625 1031.3025817871094 58.308502197265625 1055.3819274902344L125.26385498046875 1379.4335632324219Q133.47714233398438 1411.452392578125 147.8129425048828 1424.5605163574219Q162.14874267578125 1437.6686401367188 188.75982666015625 1437.6686401367188Q208.14175415039062 1437.6686401367188 224.35504150390625 1428.4712219238281Q240.56832885742188 1419.2738037109375 261.81187438964844 1409.6369018554688Q283.055419921875 1400 316.49786376953125 1400Z" fill="#FFFFFF"/><path transform="translate(3985.0,0)" d="M634.4066772460938 1320.6379699707031 570.2598266601562 1308.0774536132812Q546.9255065917969 1302.0615844726562 534.3793792724609 1289.2193298339844Q521.833251953125 1276.3770751953125 521.833251953125 1255.58740234375V150.73104858398438Q521.833251953125 114.72808837890625 543.3426666259766 99.10557556152344Q564.8520812988281 83.48306274414062 609.5078125 83.48306274414062H801.2598266601562Q857.6100158691406 83.48306274414062 897.8823394775391 98.84616088867188Q938.1546630859375 114.20925903320312 970.5847320556641 153.51829528808594Q1003.0148010253906 192.82733154296875 1035.0277099609375 265.4454040527344L1096.9612731933594 406.6180725097656Q1106.9324951171875 427.37896728515625 1120.8288116455078 434.90277099609375Q1134.7251281738281 442.42657470703125 1153.9860229492188 437.91070556640625Q1174.2469177246094 433.4553527832031 1182.2786560058594 419.59722900390625Q1190.3103942871094 405.7391052246094 1183.9155578613281 382.0387268066406L1095.8709106445312 24.082305908203125Q1087.1576232910156 -7.376007080078125 1073.3218231201172 -22.082839965820312Q1059.4860229492188 -36.7896728515625 1034.1328735351562 -36.7896728515625Q1014.8878479003906 -36.7896728515625 996.6443023681641 -27.592254638671875Q978.4007568359375 -18.39483642578125 955.6730804443359 -9.197418212890625Q932.9454040527344 0 898.8085021972656 0H153.71221923828125Q128.11700439453125 0 115.97862243652344 10.350189208984375Q103.84024047851562 20.70037841796875 103.84024047851562 37.642822265625Q103.84024047851562 68.63287353515625 140.769775390625 79.36203002929688L204.9166259765625 91.92254638671875Q228.75094604492188 97.99893188476562 241.0470733642578 110.81092834472656Q253.34320068359375 123.6229248046875 253.34320068359375 144.41259765625V1255.58740234375Q253.34320068359375 1276.3770751953125 241.0470733642578 1289.2193298339844Q228.75094604492188 1302.0615844726562 204.9166259765625 1308.0774536132812L140.769775390625 1320.6379699707031Q103.84024047851562 1331.3671264648438 103.84024047851562 1362.357177734375Q103.84024047851562 1380.2391052246094 115.97862243652344 1390.1195526123047Q128.11700439453125 1400 153.71221923828125 1400H621.4642333984375Q647.4989318847656 1400 659.4175720214844 1390.1195526123047Q671.3362121582031 1380.2391052246094 671.3362121582031 1362.357177734375Q671.3362121582031 1331.3671264648438 634.4066772460938 1320.6379699707031Z" fill="#FFFFFF"/><path transform="translate(5816.0,0)" d="M339.3778991699219 560.6557312011719H925.2557983398438L930.4532165527344 473.65679931640625H331.301513671875ZM438.6476745605469 37.642822265625Q438.6476745605469 20.70037841796875 426.56980895996094 10.350189208984375Q414.491943359375 0 388.1387939453125 0H77.22808837890625Q51.37493896484375 0 38.82733154296875 10.130447387695312Q26.27972412109375 20.260894775390625 26.27972412109375 37.203338623046875Q26.27972412109375 49.9324951171875 33.864044189453125 58.68397521972656Q41.4483642578125 67.43545532226562 61.088226318359375 76.28564453125L97.37493896484375 89.22512817382812Q126.87493896484375 102.301513671875 143.5996551513672 125.86054992675781Q160.32437133789062 149.41958618164062 179.06643676757812 208.75094604492188L514.3848876953125 1234.1697082519531Q527.0823059082031 1273.5040283203125 520.2574005126953 1291.4276428222656Q513.4324951171875 1309.3512573242188 478.4166259765625 1319.9117736816406Q452.59521484375 1328.1697082519531 442.10166931152344 1338.3001556396484Q431.6081237792969 1348.4306030273438 431.6081237792969 1363.2361450195312Q431.6081237792969 1380.7996215820312 444.4057312011719 1390.3998107910156Q457.2033386230469 1400 483.238037109375 1400H924.4532165527344Q950.8668823242188 1400 963.1947479248047 1390.3998107910156Q975.5226135253906 1380.7996215820312 975.5226135253906 1363.6756286621094Q975.5226135253906 1347.9911193847656 965.3395843505859 1337.7698974609375Q955.1565551757812 1327.5486755371094 931.0325622558594 1320.9117736816406Q903.214111328125 1313.9564208984375 897.964111328125 1300.7813262939453Q892.714111328125 1287.6062316894531 902.4720458984375 1257.3324279785156L1263.3262634277344 175.31039428710938Q1277.03955078125 131.97311401367188 1295.2369689941406 111.18344116210938Q1313.4343872070312 90.39376831054688 1346.7845764160156 81.74099731445312Q1372.9403076171875 72.769775390625 1381.7825622558594 63.10906982421875Q1390.6248168945312 53.4483642578125 1390.6248168945312 37.642822265625Q1390.6248168945312 20.70037841796875 1377.8574676513672 10.350189208984375Q1365.0901184082031 0 1339.1159362792969 0H921.0078125Q895.0941467285156 0 882.5162811279297 10.350189208984375Q869.9384155273438 20.70037841796875 869.9384155273438 37.642822265625Q869.9384155273438 52.129913330078125 879.0911865234375 61.26036071777344Q888.2439575195312 70.39080810546875 907.7469177246094 76.28564453125L970.1734924316406 87.24099731445312Q995.8709106445312 94.0594482421875 996.3773651123047 110.8253173828125Q996.8838195800781 127.5911865234375 984.9889831542969 164.21517944335938L614.523681640625 1295.3760070800781L644.8738708496094 1314.7649230957031L288.41851806640625 220.25390625Q276.03955078125 181.31442260742188 276.9998779296875 156.39080810546875Q277.960205078125 131.46719360351562 294.5113067626953 115.63435363769531Q311.0624084472656 99.801513671875 344.1070556640625 87.48306274414062L401.5207214355469 75.40667724609375Q420.14471435546875 69.13287353515625 429.3961944580078 60.82087707519531Q438.6476745605469 52.508880615234375 438.6476745605469 37.642822265625Z" fill="#FFFFFF"/><path transform="translate(7843.0,0)" d="M650.5088806152344 -30.229156494140625Q564.2985534667969 -30.229156494140625 503.3288116455078 -8.94244384765625Q442.35906982421875 12.344268798828125 404.4642333984375 33.41123962402344Q366.56939697265625 54.47821044921875 349.674560546875 54.47821044921875Q332.626953125 54.47821044921875 321.10462951660156 41.46382141113281Q309.5823059082031 28.449432373046875 299.1061096191406 11.28375244140625Q288.6299133300781 -5.881927490234375 276.82733154296875 -18.896316528320312Q265.0247497558594 -31.91070556640625 247.79559326171875 -31.91070556640625Q230.49005126953125 -31.91070556640625 219.05702209472656 -21.068450927734375Q207.62399291992188 -10.2261962890625 202.98709106445312 13.8531494140625L131.13986206054688 344.4722900390625Q127.5634765625 363.15679931640625 135.28469848632812 376.5149230957031Q143.00592041015625 389.873046875 161.26681518554688 396.1468505859375Q180.90667724609375 402.9811706542969 195.80299377441406 395.26788330078125Q210.69931030273438 387.5545959472656 221.48898315429688 365.9752502441406Q278.71221923828125 250.56051635742188 345.3540954589844 182.47418212890625Q411.9959716796875 114.38784790039062 485.26036071777344 84.69984436035156Q558.5247497558594 55.0118408203125 634.2668151855469 55.0118408203125Q741.8114624023438 55.0118408203125 803.2876586914062 112.39726257324219Q864.7638549804688 169.78268432617188 865.2033386230469 265.6874694824219Q865.642822265625 326.1398620605469 838.0902404785156 376.7212219238281Q810.5376586914062 427.3025817871094 734.4230804443359 474.2787780761719Q658.3085021972656 521.2549743652344 512.7132873535156 569.7708435058594Q361.66864013671875 620.9970397949219 270.4870910644531 685.2693634033203Q179.3055419921875 749.5416870117188 138.3055419921875 833.7167816162109Q97.3055419921875 917.8918762207031 97.3055419921875 1027Q97.3055419921875 1146.1974182128906 153.82786560058594 1236.015869140625Q210.35018920898438 1325.8343200683594 312.06993103027344 1375.7738037109375Q413.7896728515625 1425.7132873535156 548.0634765625 1425.7132873535156Q639.9583129882812 1425.7132873535156 699.09521484375 1405.9409637451172Q758.2321166992188 1386.1686401367188 794.9072113037109 1365.9568328857422Q831.5823059082031 1345.7450256347656 854.4324951171875 1345.7450256347656Q875.6616516113281 1345.7450256347656 886.7955932617188 1366.047607421875Q897.9295349121094 1386.3501892089844 910.4806365966797 1407.0922546386719Q923.03173828125 1427.8343200683594 947.8531494140625 1427.8343200683594Q965.9166259765625 1427.8343200683594 977.7970733642578 1416.3249053955078Q989.6775207519531 1404.8154907226562 998.6487426757812 1374.0833740234375L1095.2985534667969 1038.2668151855469Q1101.5723571777344 1016.5664367675781 1094.0708770751953 999.5029602050781Q1086.5693969726562 982.4394836425781 1067.8085021972656 976.0446472167969Q1048.2291564941406 969.7708435058594 1033.1130981445312 977.4538726806641Q1017.9970397949219 985.1369018554688 1007.5863342285156 1004.8977966308594Q944.8630981445312 1131.2391052246094 874.0843200683594 1204.5992431640625Q803.3055419921875 1277.9593811035156 727.3516693115234 1309.4355773925781Q651.3977966308594 1340.9117736816406 572.1716003417969 1340.9117736816406Q463.49005126953125 1340.9117736816406 398.5823059082031 1278.2237701416016Q333.674560546875 1215.5357666015625 333.674560546875 1112.1914978027344Q333.674560546875 1050.9970397949219 361.3258514404297 998.2261962890625Q388.9771423339844 945.4553527832031 463.22068786621094 896.2212219238281Q537.4642333984375 846.9870910644531 676.3620300292969 795.8343200683594Q832.2092590332031 739.03173828125 923.4513244628906 674.9791564941406Q1014.6933898925781 610.9265747070312 1054.1328735351562 532.2291564941406Q1093.5723571777344 453.53173828125 1093.1328735351562 352.8025817871094Q1092.6933898925781 247.36309814453125 1040.6249389648438 160.35516357421875Q988.5564880371094 73.34722900390625 890.1393280029297 21.559036254882812Q791.72216796875 -30.229156494140625 650.5088806152344 -30.229156494140625Z" fill="#FFFFFF"/><path transform="translate(9634.0,0)" d="M352.4587721079588 135.49803636223078Q345.0460904799402 103.28944113478065 352.71930436603725 85.19786177016795Q360.3925182521343 67.10628240555525 388.37050633504987 62.79672725498676L455.0321367532015 51.72405693307519Q472.96828620508313 48.535480849444866 480.6026514079422 42.00106810219586Q488.2370166108012 35.46665535494685 488.2370166108012 24.180026099085808Q488.2370166108012 12.893235899508 476.04085292480886 6.446617949754Q463.8446892388165 0 445.60507921501994 0H50.695179142057896Q29.946062795817852 0 22.199537524953485 6.343403613194823Q14.453012254089117 12.686807226389647 14.453012254089117 23.428286015987396Q13.749849155545235 34.732867769896984 23.263231597840786 42.14630145020783Q32.77661404013634 49.559735130518675 51.26432303711772 52.57250702753663L121.44420180469751 62.790418084710836Q154.00430549681187 67.95473250001669 173.2059421353042 85.65901678055525Q192.40757877379656 103.36330106109381 203.45080682635307 135.9109084829688Q214.54007171094418 178.888106983155 233.46624230220914 249.59135813452303Q252.3924128934741 320.29460928589106 276.9433692805469 409.0959079787135Q301.4943256676197 497.89720667153597 328.3726629707962 595.674910614267Q355.25100027397275 693.452614556998 381.9325067792088 792.2334693912417Q408.6140132844448 891.0143242254853 432.08917158842087 981.7129959966987Q455.5643298923969 1072.4116677679121 473.52104080468416 1146.4549265317619Q491.4777517169714 1220.4981852956116 500.31859574094415 1268.6522481292486Q507.1860196068883 1298.206111073494 499.7860525343567 1313.8257283177227Q492.38608546182513 1329.4453455619514 464.57112228125334 1334.5370433032513L395.7504043094814 1347.40333859995Q375.87539653480053 1351.6645313575864 368.4136578030884 1358.1989441048354Q360.9519190713763 1364.7333568520844 360.9519190713763 1375.844181921333Q360.9519190713763 1388.0099394060671 374.90280909463763 1394.0049697030336Q388.85369911789894 1400 415.6828624904156 1400H805.3189977258444Q825.2923342995346 1400 832.5299369692802 1394.8444740660489Q839.7675396390259 1389.6889481320977 839.7675396390259 1379.5780157670379Q839.7675396390259 1367.2607694119215 830.1478187926114 1360.450492726639Q820.5280979461968 1353.6402160413563 797.9372624717653 1348.324305459857L722.0860346965492 1332.216005768627Q692.2584216892719 1327.148516047746 675.4752152580768 1313.9536881353706Q658.6920088268816 1300.7588602229953 650.4066543094814 1273.0544076114893Q637.0563039630651 1222.36663043499 616.1811397131532 1145.5622325614095Q595.3059754632413 1068.757834687829 569.460776168853 975.2858929727226Q543.6155768744648 881.8139512576163 516.194572109729 780.7840308062732Q488.77356734499335 679.7541103549302 462.4557463992387 581.0337145365775Q436.13792545348406 482.31331871822476 413.51434869877994 394.8120309486985Q390.8907719440758 307.3107431791723 374.9162121359259 239.76234268769622Q358.94165232777596 172.21394219622016 352.4587721079588 135.49803636223078Z" fill="#6E9CFF"/><path transform="translate(10734.0,0)" d="M405.7438537366688 613.6150660440326 444.6181100271642 653.8892079666257Q486.4844348728657 629.9133549518883 545.4070992488414 611.7854977678508Q604.3297636248171 593.6576405838132 676.7930056862533 593.6576405838132Q803.2026977539062 593.6576405838132 895.559032658115 638.1290689371526Q987.9153675623238 682.6004972904921 1046.0603752378374 763.5318706445396Q1104.205382913351 844.4632439985871 1125.1684103831649 952.4125447832048Q1151.992437865585 1082.7867497764528 1117.6004358809441 1172.0194949079305Q1083.2084338963032 1261.2522400394082 1002.8810833040625 1306.9188617412Q922.5537327118218 1352.585483442992 808.8590375632048 1352.585483442992Q726.0661916583776 1352.585483442992 691.6694707237184 1331.468902407214Q657.2727497890592 1310.3523213714361 643.0116032920778 1263.5689429156482Q632.3465634547174 1218.4581543952227 613.3930339515209 1146.1696756165475Q594.4395044483244 1073.8811968378723 570.1006642784923 984.3430475275964Q545.7618241086602 894.8048982173204 518.9682111833245 796.2298041693866Q492.1745982579887 697.6547101214528 465.5415077935904 599.1280284207314Q438.90841732919216 500.60134672001004 415.4300813097507 411.16317668929696Q391.9517452903092 321.7250066585839 374.4466220308095 250.1517681647092Q356.94149877130985 178.57852967083454 348.34907560795546 134.4434794820845Q340.5847856067121 103.81685369461775 350.455390881747 86.16478479653597Q360.3259961567819 68.51271589845419 380.04183124378324 64.55471547320485L451.62554970383644 52.778882052749395Q467.97956877201796 49.06289340928197 476.2292218040675 42.61635593138635Q484.47887483611703 36.169818453490734 484.47887483611703 25.93790702149272Q484.47887483611703 13.947953723371029 473.60116207785904 6.9739768616855145Q462.72344931960106 0 443.60487201064825 0H45.17931738868356Q27.41865762323141 0 20.287393357604742 6.598160468041897Q13.156129091978073 13.196320936083794 13.156129091978073 23.428286015987396Q13.156129091978073 36.13919396698475 23.372674632817507 43.552627647295594Q33.58922017365694 50.96606132760644 54.18641846626997 53.27567012608051L114.52201385423541 62.087254986166954Q147.3063377737999 66.54840630292892 168.2537781484425 82.88270324096084Q189.20121852308512 99.21700017899275 201.45076056569815 133.44981081411242Q212.53997180238366 176.95420728251338 232.1692786682397 248.4484431538731Q251.79858553409576 319.9426790252328 276.6132213771343 409.9534731172025Q301.4278572201729 499.96426720917225 328.70936982892454 599.4878017120063Q355.9908824376762 699.0113362148404 382.5087155904621 798.6106688007712Q409.026548743248 898.2100013867021 432.6775112338364 988.7328957952559Q456.32847372442484 1079.2557902038097 473.8062112480402 1152.0168795529753Q491.28394877165556 1224.7779689021409 499.0700213238597 1270.1613252684474Q504.93119705468416 1300.4670355916023 497.7828858997673 1315.0440658461303Q490.6345747448504 1329.6210961006582 463.5226673670113 1334.888651676476L392.7682642862201 1347.40333859995Q374.6511910818517 1351.488727170974 368.0683928113431 1358.1110420115292Q361.4855945408344 1364.7333568520844 361.4855945408344 1373.9104968123138Q361.4855945408344 1385.9004501104355 372.0964732579887 1392.9502250552177Q382.70735197514296 1400 401.97747180238366 1400H833.7280689552426Q983.9667113535106 1400 1091.1898074802011 1343.774608636275Q1198.4129036068916 1287.5492172725499 1246.7836235649884 1183.6748311240226Q1295.1543435230851 1079.8004449754953 1266.0626679435372 936.0655731447041Q1243.601524014026 821.980032954365 1167.6949074156582 734.2473822943866Q1091.7882908172905 646.5147316344082 971.2184088695794 596.4458495732397Q850.6485269218683 546.3769675120711 695.2313049808145 544.4432287551463Q604.97256956622 543.3884572833776 532.01739542 563.089056905359Q459.06222127377987 582.7896565273404 405.7438537366688 613.6150660440326ZM712.6266156882048 559.7424689643085 846.6837982423604 579.8043135143816 962.1125970520079 221.9175418652594Q980.4080686308444 160.93949042260647 997.0437004100531 128.78670718334615Q1013.6793321892619 96.63392394408584 1031.285045273602 84.98295309767127Q1048.890758357942 73.3319822512567 1068.253841727972 73.3319822512567Q1088.4844247736037 73.3319822512567 1103.9392585642636 82.47728402167559Q1119.3940923549235 91.62258579209447 1132.5458179786801 110.83417096734047Q1138.1101568080485 118.30163145437837 1147.7814445868134 121.32009458914399Q1157.4527323655784 124.33855772390962 1164.8297772370279 121.30163145437837Q1174.9406559541821 117.7615006454289 1177.4776053540409 107.1321856174618Q1180.0145547538996 96.5028705894947 1173.2859015092254 84.585533965379Q1153.677877832204 39.425240483134985 1107.2947941739112 9.064140755683184Q1060.9117105156183 -21.296958971768618 998.151570905 -21.296958971768618Q961.3996403291821 -21.296958971768618 930.8625614717603 -3.8733518570661545Q900.3254826143384 13.550255257636309 874.7554257232696 57.68525802344084Q849.1853688322008 101.82026078924537 826.4771545901895 180.54494013637304Z" fill="#6E9CFF"/><path transform="translate(12430.0,0)" d="M352.4587721079588 135.49803636223078Q345.0460904799402 103.28944113478065 352.71930436603725 85.19786177016795Q360.3925182521343 67.10628240555525 388.37050633504987 62.79672725498676L455.0321367532015 51.72405693307519Q472.96828620508313 48.535480849444866 480.6026514079422 42.00106810219586Q488.2370166108012 35.46665535494685 488.2370166108012 24.180026099085808Q488.2370166108012 12.893235899508 476.04085292480886 6.446617949754Q463.8446892388165 0 445.60507921501994 0H50.695179142057896Q29.946062795817852 0 22.199537524953485 6.343403613194823Q14.453012254089117 12.686807226389647 14.453012254089117 23.428286015987396Q13.749849155545235 34.732867769896984 23.263231597840786 42.14630145020783Q32.77661404013634 49.559735130518675 51.26432303711772 52.57250702753663L121.44420180469751 62.790418084710836Q154.00430549681187 67.95473250001669 173.2059421353042 85.65901678055525Q192.40757877379656 103.36330106109381 203.45080682635307 135.9109084829688Q214.54007171094418 178.888106983155 233.46624230220914 249.59135813452303Q252.3924128934741 320.29460928589106 276.9433692805469 409.0959079787135Q301.4943256676197 497.89720667153597 328.3726629707962 595.674910614267Q355.25100027397275 693.452614556998 381.9325067792088 792.2334693912417Q408.6140132844448 891.0143242254853 432.08917158842087 981.7129959966987Q455.5643298923969 1072.4116677679121 473.52104080468416 1146.4549265317619Q491.4777517169714 1220.4981852956116 500.31859574094415 1268.6522481292486Q507.1860196068883 1298.206111073494 499.7860525343567 1313.8257283177227Q492.38608546182513 1329.4453455619514 464.57112228125334 1334.5370433032513L395.7504043094814 1347.40333859995Q375.87539653480053 1351.6645313575864 368.4136578030884 1358.1989441048354Q360.9519190713763 1364.7333568520844 360.9519190713763 1375.844181921333Q360.9519190713763 1388.0099394060671 374.90280909463763 1394.0049697030336Q388.85369911789894 1400 415.6828624904156 1400H805.3189977258444Q825.2923342995346 1400 832.5299369692802 1394.8444740660489Q839.7675396390259 1389.6889481320977 839.7675396390259 1379.5780157670379Q839.7675396390259 1367.2607694119215 830.1478187926114 1360.450492726639Q820.5280979461968 1353.6402160413563 797.9372624717653 1348.324305459857L722.0860346965492 1332.216005768627Q692.2584216892719 1327.148516047746 675.4752152580768 1313.9536881353706Q658.6920088268816 1300.7588602229953 650.4066543094814 1273.0544076114893Q637.0563039630651 1222.36663043499 616.1811397131532 1145.5622325614095Q595.3059754632413 1068.757834687829 569.460776168853 975.2858929727226Q543.6155768744648 881.8139512576163 516.194572109729 780.7840308062732Q488.77356734499335 679.7541103549302 462.4557463992387 581.0337145365775Q436.13792545348406 482.31331871822476 413.51434869877994 394.8120309486985Q390.8907719440758 307.3107431791723 374.9162121359259 239.76234268769622Q358.94165232777596 172.21394219622016 352.4587721079588 135.49803636223078Z" fill="#6E9CFF"/><path transform="translate(13530.0,0)" d="M503.6214016377926 -21.054825119674206Q415.7948728762567 -21.054825119674206 358.81788759864867 -3.9885564893484116Q301.84090232104063 13.077712140977383 268.0039577409625 34.940821366384625Q234.16701316088438 56.80393059179187 216.07270198874176 73.87019922211766Q197.97839081659913 90.93646785244346 187.8203855715692 90.93646785244346Q178.96551901102066 90.93646785244346 167.31752800010145 75.43964187428355Q155.66953698918223 59.94281589612365 142.81257695890963 39.83387980423868Q129.95561692863703 19.724943712353706 117.41016867384315 4.228117734193802Q104.86472041904926 -11.268708243966103 94.03913518413901 -11.268708243966103Q76.72696213424206 -11.268708243966103 68.18298572301865 -1.8157848175615072Q59.639009311795235 7.637138608843088 62.32432720810175 26.5251939073205L105.53359772264957 371.8164560236037Q107.63678523525596 391.20772324874997 116.97503507137299 401.0549530275166Q126.31328490749002 410.90218280628324 139.89173140749335 410.90218280628324Q153.9185573272407 410.90218280628324 162.76572976447642 400.9913126025349Q171.61290220171213 391.08044239878654 175.43218565359712 373.1197630390525L183.54612274095416 299.7245883755386Q192.07146126776934 168.42556975781918 273.58711678534746 100.79907886497676Q355.1027723029256 33.17258797213435 477.93390280008316 33.17258797213435Q563.3626444488764 33.17258797213435 629.1704791467637 65.42847825214267Q694.978313844651 97.68436853215098 735.7627221234143 155.10952446237206Q776.5471304021776 212.53468039259315 786.6450910530984 287.59404427558184Q801.9557969346642 381.4854689575732 758.1373265702277 459.03064158558846Q714.3188562057912 536.5758142136037 582.0300234593451 626.9208377897739Q437.1790868602693 726.8889848254621 374.8499279562384 819.9750671386719Q312.52076905220747 913.0611494518816 327.2862486578524 1036.0891945250332Q338.06327168270946 1134.1495201960206 397.41190022043884 1222.1727596223354Q456.7605287581682 1310.1959990486503 562.1035992093384 1366.113338591531Q667.4466696605086 1422.0306781344116 814.4853884987533 1422.0306781344116Q937.166175018996 1422.0306781344116 1021.8740883599967 1381.7152328975499Q1106.5820017009974 1341.3997876606882 1149.8680666722357 1277.3632194399834Q1193.154131643474 1213.3266512192786 1191.8393885046244 1141.611715335399Q1190.9183069616556 1105.0301494300365 1173.193163625896 1081.8354890737683Q1155.4680202901363 1058.6408287175 1127.5272621028125 1058.6408287175Q1100.7792152278125 1058.6408287175 1084.9325007479638 1074.2021840177476Q1069.085786268115 1089.7635393179953 1060.1454627141356 1118.3400855660439L1045.5211033895612 1180.5790906883776Q1022.945282176137 1277.072261750698 960.4207456558943 1324.0862770937383Q897.8962091356516 1371.1002924367785 802.6356119550765 1371.1002924367785Q703.8553692288697 1371.1002924367785 630.0386313665658 1333.7201464343816Q556.221893504262 1296.3400004319847 512.9680218528956 1234.127445500344Q469.71415020152926 1171.9148905687034 461.5740900672972 1096.6934472471476Q447.7360400483012 993.7167727760971 500.36067791841924 911.3596146721393Q552.9853157885373 829.0024565681815 684.6053567789495 732.0344926379621Q788.0820180252194 660.0889978073537 844.4356059599668 596.6339966543019Q900.7891938947141 533.17899550125 920.3382473047823 469.45334522239864Q939.8873007148504 405.72769494354725 931.6987561173737 332.16711035743356Q921.8860279135406 223.64732602983713 864.0890652481467 144.396302819252Q806.2921025827527 65.1452796086669 713.2702249791473 22.045227244496346Q620.2483473755419 -21.054825119674206 503.6214016377926 -21.054825119674206Z" fill="#6E9CFF"/></g>
</svg>
